<svg data-v-0dd9719b="" version="1.0" xmlns="http://www.w3.org/2000/svg" xmlns:xlink="http://www.w3.org/1999/xlink" width="100%" height="100%" viewBox="0 0 340.000000 250.000000" preserveAspectRatio="xMidYMid meet" color-interpolation-filters="sRGB" style="margin: auto;"> <rect data-v-0dd9719b="" x="0" y="0" width="100%" height="100%" fill="#fff" fill-opacity="1" class="background"></rect> <rect data-v-0dd9719b="" x="0" y="0" width="100%" height="100%" fill="url(#watermark)" fill-opacity="1" class="watermarklayer"></rect> <g data-v-0dd9719b="" fill="#333" class="icon-text-wrapper icon-svg-group iconsvg" transform="translate(71.5,96.40842247009277)"><g class="iconsvg-imagesvg" transform="translate(0,0)"><g><rect fill="#333" fill-opacity="0" stroke-width="2" x="0" y="0" width="60" height="57.18315765396565" class="image-rect"></rect> <svg x="0" y="0" width="60" height="57.18315765396565" filtersec="colorsb734032457" class="image-svg-svg primary" style="overflow: visible;"><svg xmlns="http://www.w3.org/2000/svg" viewBox="0 0 130.35000610351562 124.2300033569336"><g fill-rule="evenodd"><path fill="#e2ad5d" d="M61.15 24.11l-20.82-5.59-8.96 8.97 26.94 7.22-2.84 10.6-33.06-8.86-8.97 8.96 49.79 13.34L76.58 8.96 67.61 0l-6.46 24.11zM69.19 100.12l20.83 5.58 8.96-8.96-26.95-7.22 2.85-10.6 33.06 8.86 8.97-8.96-49.8-13.35-13.34 49.8 8.96 8.96 6.46-24.11z"></path><path fill="#a3a4a6" d="M61.81 64.05L8.96 49.89 0 58.85l27.16 7.28-4.75 17.77 8.96 8.96 6.4-23.89 10.6 2.85-8.04 30 8.96 8.96 12.52-46.73zM68.53 60.17l52.86 14.16 8.96-8.96-27.17-7.28 4.76-17.76-8.96-8.96-6.4 23.88-10.6-2.84 8.04-30-8.96-8.97-12.53 46.73z"></path></g></svg></svg> <!----></g></g> <g transform="translate(67,0.07157707214355469)"><g data-gra="path-name" fill-rule="" class="tp-name iconsvg-namesvg"><g transform="scale(1)"><g><path d="M17.67-22.02L2.31-22.02 1.08-9.87 13.35-9.87 12.66-3.09 0-3.09 0.42 0 15.42 0 16.77-12.96 4.56-12.96 5.16-18.93 14.25-18.93 14.07-17.22 17.16-17.22 17.67-22.02ZM39 0L35.55 0 33.96-5.64 23.94-5.64 21.18 0 17.67 0 28.5-22.02 32.82-22.02 39 0ZM30.3-18.66L25.44-8.73 33.09-8.73 30.3-18.66ZM41.34-22.02L39 0 53.79 0 54.87-3.09 42.48-3.09 44.46-22.02 41.34-22.02ZM57.21-22.02L54.87 0 69.73 0 70.78-3.09 58.32-3.09 59.1-10.08 69.67-10.08 70-13.2 59.4-13.2 60-18.93 72.13-18.93 72.46-22.02 57.21-22.02ZM74.8-22.02L72.46 0 75.61 0 76.66-9.87 85.9-9.87 84.85 0 87.97 0 90.31-22.02 87.16-22.02 86.23-12.96 76.96-12.96 77.92-22.02 74.8-22.02ZM108.22-22.02L92.68-22.02 90.31 0 105.85 0 108.22-22.02ZM93.85-3.09L95.5-18.93 104.77-18.93 103.09-3.09 93.85-3.09ZM130-22.02L126.52-22.02 118.81-8.01 114.04-22.02 110.53-22.02 108.22 0 111.34 0 112.93-15.21 116.56-4.65 120.37-4.65 126.16-15.21 124.54 0 127.72 0 130-22.02Z" transform="translate(0, 22.020000457763672)"></path></g> <!----> <!----> <!----> <!----> <!----> <!----> <g data-gra="path-name-1" fill="#333" transform="translate(0,25.020000457763672)"><g transform="scale(1)"><path d="M3.27-32.02L0 0 22.6 0 24.52-18.5 14.4-18.5 14.96-14 19.5-14 18.54-4.49 5.02-4.49 7.46-27.53 24.39-27.53 25.96-32.02 3.27-32.02ZM29.36-32.02L51.91-32.02 49.82-12.52 45.06-12.52 49.43 0 44.8 0 40.48-12.52 31.85-12.52 30.54 0 25.96 0 29.36-32.02ZM32.33-17.01L45.76-17.01 46.9-27.53 33.42-27.53 32.33-17.01ZM77.96-32.02L55.36-32.02 51.91 0 74.51 0 77.96-32.02ZM57.06-4.49L59.46-27.53 72.94-27.53 70.5-4.49 57.06-4.49ZM83.06-4.49L85.94-32.02 81.4-32.02 77.96 0 100.51 0 103.96-32.02 99.42-32.02 96.5-4.49 83.06-4.49ZM107.36-32.02L103.96 0 108.58 0 109.85-12.26 127.86-12.26 130-32.02 107.36-32.02ZM123.81-16.8L110.28-16.8 111.46-27.53 124.94-27.53 123.81-16.8Z" transform="translate(0, 32.02000045776367)"></path></g></g></g></g> <!----></g></g><defs v-gra="od"></defs></svg>